<svg xmlns="http://www.w3.org/2000/svg" viewBox="0 0 503.84 503.84">
    <!-- By default it's the instagram logo (because I want to use it in CSS and
    I've found no other way to use a symbol in CSS) -->
    <path d="M251.92,45.39c67.27,0,75.23.26,101.8,1.47,24.56,1.12,37.9,5.22,46.78,8.67a78,78,0,0,1,29,18.85,78,78,0,0,1,18.85,29c3.45,8.88,7.55,22.22,8.67,46.78,1.21,26.57,1.47,34.53,1.47,101.8s-.26,75.23-1.47,101.8c-1.12,24.56-5.22,37.9-8.67,46.78a83.51,83.51,0,0,1-47.81,47.81c-8.88,3.45-22.22,7.55-46.78,8.67-26.56,1.21-34.53,1.47-101.8,1.47s-75.24-.26-101.8-1.47c-24.56-1.12-37.9-5.22-46.78-8.67a78,78,0,0,1-29-18.85,78,78,0,0,1-18.85-29c-3.45-8.88-7.55-22.22-8.67-46.78-1.21-26.57-1.47-34.53-1.47-101.8s.26-75.23,1.47-101.8c1.12-24.56,5.22-37.9,8.67-46.78a78,78,0,0,1,18.85-29,78,78,0,0,1,29-18.85c8.88-3.45,22.22-7.55,46.78-8.67,26.57-1.21,34.53-1.47,101.8-1.47m0-45.39c-68.42,0-77,.29-103.87,1.52S102.93,7,86.9,13.23A123.52,123.52,0,0,0,42.28,42.28a123.52,123.52,0,0,0-29,44.62C7,102.93,2.74,121.24,1.52,148.05S0,183.5,0,251.92s.29,77,1.52,103.87S7,400.91,13.23,416.94a123.52,123.52,0,0,0,29.05,44.62A123.68,123.68,0,0,0,86.9,490.62c16,6.22,34.34,10.48,61.15,11.71s35.45,1.51,103.87,1.51,77-.29,103.87-1.51,45.12-5.49,61.15-11.71a128.85,128.85,0,0,0,73.68-73.68c6.22-16,10.48-34.34,11.71-61.15s1.51-35.45,1.51-103.87-.29-77-1.51-103.87-5.49-45.12-11.71-61.15a123.68,123.68,0,0,0-29.06-44.62,123.52,123.52,0,0,0-44.62-29C400.91,7,382.6,2.74,355.79,1.52S320.34,0,251.92,0Z"/>
    <path d="M251.92,122.56A129.37,129.37,0,1,0,381.29,251.92,129.35,129.35,0,0,0,251.92,122.56Zm0,213.33a84,84,0,1,1,84-84A84,84,0,0,1,251.92,335.89Z"/>
    <circle cx="386.4" cy="117.44" r="30.23"/>

    <!-- Symbols for '<svg>' '<use>' tags -->
    <symbol id="twitter" viewBox="0 0 24 24">
        <path d="M23.643 4.937c-.835.37-1.732.62-2.675.733.962-.576 1.7-1.49 2.048-2.578-.9.534-1.897.922-2.958 1.13-.85-.904-2.06-1.47-3.4-1.47-2.572 0-4.658 2.086-4.658 4.66 0 .364.042.718.12 1.06-3.873-.195-7.304-2.05-9.602-4.868-.4.69-.63 1.49-.63 2.342 0 1.616.823 3.043 2.072 3.878-.764-.025-1.482-.234-2.11-.583v.06c0 2.257 1.605 4.14 3.737 4.568-.392.106-.803.162-1.227.162-.3 0-.593-.028-.877-.082.593 1.85 2.313 3.198 4.352 3.234-1.595 1.25-3.604 1.995-5.786 1.995-.376 0-.747-.022-1.112-.065 2.062 1.323 4.51 2.093 7.14 2.093 8.57 0 13.255-7.098 13.255-13.254 0-.2-.005-.402-.014-.602.91-.658 1.7-1.477 2.323-2.41z"/>
    </symbol>
    <symbol id="github" viewBox="0 0 36 36">
        <path fill-rule="evenodd" clip-rule="evenodd" d="M18,1.4C9,1.4,1.7,8.7,1.7,17.7c0,7.2,4.7,13.3,11.1,15.5  c0.8,0.1,1.1-0.4,1.1-0.8c0-0.4,0-1.4,0-2.8c-4.5,1-5.5-2.2-5.5-2.2c-0.7-1.9-1.8-2.4-1.8-2.4c-1.5-1,0.1-1,0.1-1  c1.6,0.1,2.5,1.7,2.5,1.7c1.5,2.5,3.8,1.8,4.7,1.4c0.1-1.1,0.6-1.8,1-2.2c-3.6-0.4-7.4-1.8-7.4-8.1c0-1.8,0.6-3.2,1.7-4.4  c-0.2-0.4-0.7-2.1,0.2-4.3c0,0,1.4-0.4,4.5,1.7c1.3-0.4,2.7-0.5,4.1-0.5c1.4,0,2.8,0.2,4.1,0.5c3.1-2.1,4.5-1.7,4.5-1.7  c0.9,2.2,0.3,3.9,0.2,4.3c1,1.1,1.7,2.6,1.7,4.4c0,6.3-3.8,7.6-7.4,8c0.6,0.5,1.1,1.5,1.1,3c0,2.2,0,3.9,0,4.5  c0,0.4,0.3,0.9,1.1,0.8c6.5-2.2,11.1-8.3,11.1-15.5C34.3,8.7,27,1.4,18,1.4z"/>
    </symbol>
    <symbol id="instagram" viewBox="0 0 503.84 503.84">
        <path d="M251.92,45.39c67.27,0,75.23.26,101.8,1.47,24.56,1.12,37.9,5.22,46.78,8.67a78,78,0,0,1,29,18.85,78,78,0,0,1,18.85,29c3.45,8.88,7.55,22.22,8.67,46.78,1.21,26.57,1.47,34.53,1.47,101.8s-.26,75.23-1.47,101.8c-1.12,24.56-5.22,37.9-8.67,46.78a83.51,83.51,0,0,1-47.81,47.81c-8.88,3.45-22.22,7.55-46.78,8.67-26.56,1.21-34.53,1.47-101.8,1.47s-75.24-.26-101.8-1.47c-24.56-1.12-37.9-5.22-46.78-8.67a78,78,0,0,1-29-18.85,78,78,0,0,1-18.85-29c-3.45-8.88-7.55-22.22-8.67-46.78-1.21-26.57-1.47-34.53-1.47-101.8s.26-75.23,1.47-101.8c1.12-24.56,5.22-37.9,8.67-46.78a78,78,0,0,1,18.85-29,78,78,0,0,1,29-18.85c8.88-3.45,22.22-7.55,46.78-8.67,26.57-1.21,34.53-1.47,101.8-1.47m0-45.39c-68.42,0-77,.29-103.87,1.52S102.93,7,86.9,13.23A123.52,123.52,0,0,0,42.28,42.28a123.52,123.52,0,0,0-29,44.62C7,102.93,2.74,121.24,1.52,148.05S0,183.5,0,251.92s.29,77,1.52,103.87S7,400.91,13.23,416.94a123.52,123.52,0,0,0,29.05,44.62A123.68,123.68,0,0,0,86.9,490.62c16,6.22,34.34,10.48,61.15,11.71s35.45,1.51,103.87,1.51,77-.29,103.87-1.51,45.12-5.49,61.15-11.71a128.85,128.85,0,0,0,73.68-73.68c6.22-16,10.48-34.34,11.71-61.15s1.51-35.45,1.51-103.87-.29-77-1.51-103.87-5.49-45.12-11.71-61.15a123.68,123.68,0,0,0-29.06-44.62,123.52,123.52,0,0,0-44.62-29C400.91,7,382.6,2.74,355.79,1.52S320.34,0,251.92,0Z"/>
        <path d="M251.92,122.56A129.37,129.37,0,1,0,381.29,251.92,129.35,129.35,0,0,0,251.92,122.56Zm0,213.33a84,84,0,1,1,84-84A84,84,0,0,1,251.92,335.89Z"/>
        <circle cx="386.4" cy="117.44" r="30.23"/>
    </symbol>
</svg>